HIERARCHY
ROOT Hips
{
	OFFSET	0.00	0.00	0.00
	CHANNELS 6 Xposition Yposition Zposition Zrotation Xrotation Yrotation
	JOINT LeftUpLeg
	{
		OFFSET	 0.126116	-0.014019	-0.065224
		CHANNELS 3 Zrotation Xrotation Yrotation
		JOINT LeftLeg
		{
			OFFSET	 0.000000	 0.000000	 0.569914
			CHANNELS 3 Zrotation Xrotation Yrotation
			JOINT LeftFoot
			{
				OFFSET	 0.000000	 0.000000	 0.544423
				CHANNELS 3 Zrotation Xrotation Yrotation
				JOINT LeftToeBase
				{
					OFFSET	 0.000000	 0.000000	 0.207117
					CHANNELS 3 Zrotation Xrotation Yrotation
					End Site
					{
						OFFSET	 0.000000	 0.000000	 0.207117
					}
				}
			}
		}
	}
	JOINT RightUpLeg
	{
		OFFSET	-0.124023	-0.008373	-0.065224
		CHANNELS 3 Zrotation Xrotation Yrotation
		JOINT RightLeg
		{
			OFFSET	 0.000000	 0.000000	 0.570047
			CHANNELS 3 Zrotation Xrotation Yrotation
			JOINT RightFoot
			{
				OFFSET	 0.000000	 0.000000	 0.544354
				CHANNELS 3 Zrotation Xrotation Yrotation
				JOINT RightToeBase
				{
					OFFSET	 0.000000	 0.000000	 0.207540
					CHANNELS 3 Zrotation Xrotation Yrotation
					End Site
					{
						OFFSET	 0.000000	 0.000000	 0.207540
					}
				}
			}
		}
	}
	JOINT Spine
	{
		OFFSET	 0.000184	-0.007763	 0.117403
		CHANNELS 3 Zrotation Xrotation Yrotation
		JOINT Spine1
		{
			OFFSET	 0.000000	 0.000000	 0.137269
			CHANNELS 3 Zrotation Xrotation Yrotation
			JOINT Spine2
			{
				OFFSET	 0.000000	 0.000000	 0.156879
				CHANNELS 3 Zrotation Xrotation Yrotation
				JOINT LeftShoulder
				{
					OFFSET	 0.080501	-0.002496	 0.160144
					CHANNELS 3 Zrotation Xrotation Yrotation
					JOINT LeftArm
					{
						OFFSET	 0.000000	 0.000000	 0.164363
						CHANNELS 3 Zrotation Xrotation Yrotation
						JOINT LeftForeArm
						{
							OFFSET	 0.000000	 0.000000	 0.364576
							CHANNELS 3 Zrotation Xrotation Yrotation
							JOINT LeftHand
							{
								OFFSET	 0.000000	 0.000000	 0.360812
								CHANNELS 3 Zrotation Xrotation Yrotation
								JOINT LeftHandIndex1
								{
									OFFSET	 0.000000	 0.000000	 0.086006
									CHANNELS 3 Zrotation Xrotation Yrotation
									JOINT LeftHandIndex2
									{
										OFFSET	 0.000000	 0.000000	 0.047237
										CHANNELS 3 Zrotation Xrotation Yrotation
										JOINT LeftHandIndex3
										{
											OFFSET	-0.004284	-0.000551	 0.038165
											CHANNELS 3 Zrotation Xrotation Yrotation
											End Site
											{
												OFFSET	-0.004284	-0.000551	 0.038165
											}
										}
									}
								}
							}
						}
					}
				}
				JOINT Neck
				{
					OFFSET	 0.000000	 0.000000	 0.176489
					CHANNELS 3 Zrotation Xrotation Yrotation
					JOINT Head
					{
						OFFSET	 0.000000	-0.001747	 0.077940
						CHANNELS 3 Zrotation Xrotation Yrotation
						End Site
						{
							OFFSET	 0.000000	-0.001747	 0.077940
						}
					}
				}
				JOINT RightShoulder
				{
					OFFSET	-0.080363	 0.000306	 0.159706
					CHANNELS 3 Zrotation Xrotation Yrotation
					JOINT RightArm
					{
						OFFSET	 0.000000	 0.000000	 0.164196
						CHANNELS 3 Zrotation Xrotation Yrotation
						JOINT RightForeArm
						{
							OFFSET	 0.000000	 0.000000	 0.365611
							CHANNELS 3 Zrotation Xrotation Yrotation
							JOINT RightHand
							{
								OFFSET	 0.000000	 0.000000	 0.360648
								CHANNELS 3 Zrotation Xrotation Yrotation
								JOINT RightHandIndex1
								{
									OFFSET	 0.000000	 0.000000	 0.069977
									CHANNELS 3 Zrotation Xrotation Yrotation
									JOINT RightHandIndex2
									{
										OFFSET	 0.000000	 0.000000	 0.052305
										CHANNELS 3 Zrotation Xrotation Yrotation
										JOINT RightHandIndex3
										{
											OFFSET	 0.009002	-0.000782	 0.042196
											CHANNELS 3 Zrotation Xrotation Yrotation
											End Site
											{
												OFFSET	 0.009002	-0.000782	 0.042196
											}
										}
									}
								}
							}
						}
					}
				}
			}
		}
	}
}
MOTION
Frames:    12
Frame Time: 0.03333334
-0.727094	-0.005997	 1.272311	-177.499200	-5.421862	 0.915389	-19.079770	 3.259183	-175.512800	-4.021090	-10.917020	-1.041804	 15.024600	 71.299850	-26.726860	-2.385833	 28.452760	 0.000004	 19.490280	 3.695220	 173.448700	 1.922367	-9.202640	 0.342846	-17.007880	 69.736370	 24.696850	 2.384659	 28.388700	-0.000001	-7.456170	 6.391311	-1.384117	-3.111547	 9.843933	-0.512955	 7.977474	-7.092231	 4.816178	-91.776170	 78.527430	 180.000000	-29.924140	-3.861768	-3.158200	-13.807330	-1.924098	-22.725420	 0.292778	-14.705120	-2.307260	-4.130354	 21.526190	 0.991307	-5.167926	 0.731697	 3.519349	-1.378229	 35.397820	-2.634230	-7.966477	 0.915905	 3.386063	-2.130107	-17.144210	-3.513516	 89.782110	 78.203870	 180.000000	 0.733719	-6.093108	-5.290370	 7.528035	-2.407567	 28.805100	 11.642350	 52.624560	 54.141730	 5.716295	 19.173350	-3.684826	 5.027458	 0.246833	-9.377971	-2.350882	 35.473990	 5.254307
-0.727044	-0.006000	 1.272291	-177.452300	-5.501333	 0.907362	-18.820020	 3.375971	-175.526100	-4.187959	-10.883420	-1.070437	 15.344130	 71.115140	-26.913070	-2.385833	 28.452760	 0.000004	 19.348830	 3.829062	 173.439900	 2.043226	-9.157057	 0.360425	-17.037320	 69.515830	 24.635580	 2.384659	 28.388700	-0.000001	-7.466097	 6.447681	-1.411113	-3.113550	 9.938149	-0.371524	 7.901610	-7.224489	 4.695112	-91.776150	 78.527380	 180.000000	-30.149980	-3.534677	-2.696900	-13.914150	-1.967935	-23.683720	 0.114989	-14.865000	-2.305099	-4.130354	 21.526190	 0.991307	-5.167926	 0.731697	 3.519349	-1.378229	 35.397820	-2.634230	-8.065851	 0.963270	 3.462894	-2.213952	-17.260010	-3.615211	 89.782100	 78.203870	-180.000000	 0.810549	-5.970872	-5.536752	 7.648146	-2.405312	 29.464110	 12.175700	 53.582610	 53.854250	 5.716295	 19.173350	-3.684826	 5.027458	 0.246833	-9.377971	-2.350882	 35.473990	 5.254307
-0.726992	-0.006001	 1.272270	-177.405000	-5.581397	 0.898987	-18.552880	 3.484169	-175.540700	-4.359170	-10.870950	-1.101821	 15.676900	 70.938120	-27.110680	-2.385833	 28.452760	 0.000004	 19.203580	 3.965897	 173.431900	 2.167029	-9.110036	 0.378221	-17.072330	 69.290450	 24.577260	 2.384659	 28.388700	-0.000001	-7.476629	 6.503097	-1.438614	-3.115787	 10.034060	-0.227728	 7.823382	-7.358700	 4.571440	-91.776230	 78.527420	-180.000000	-30.378930	-3.192491	-2.214770	-14.024200	-2.010792	-24.680030	-0.066709	-15.029720	-2.303449	-4.130354	 21.526190	 0.991307	-5.167926	 0.731697	 3.519349	-1.378229	 35.397820	-2.634230	-8.167759	 1.011527	 3.541832	-2.300126	-17.378370	-3.720049	 89.782080	 78.203890	-180.000000	 0.899976	-5.836310	-5.797058	 7.771628	-2.402423	 30.165780	 12.781480	 54.562560	 53.492630	 5.716295	 19.173350	-3.684826	 5.027458	 0.246833	-9.377971	-2.350882	 35.473990	 5.254307
-0.726652	-0.006023	 1.272101	-177.086900	-6.125647	 0.844337	-16.748030	 4.003664	-175.658600	-5.510654	-11.255520	-1.367776	 18.041850	 70.020810	-28.594670	-2.385833	 28.452760	 0.000004	 18.208130	 4.754840	 173.384000	 2.994424	-9.118986	 0.510027	-17.502630	 67.968610	 24.402460	 2.384659	 28.388700	-0.000001	-7.573579	 6.898773	-1.614215	-3.150737	 10.630940	 0.704894	 7.289082	-8.232344	 3.752870	-91.776230	 78.527420	-179.999900	-31.839960	-0.714907	 1.280652	-14.773290	-2.239647	-31.723320	-1.269995	-16.154600	-2.309735	-4.130354	 21.526190	 0.991307	-5.167926	 0.731697	 3.519349	-1.378229	 35.397820	-2.634230	-8.851153	 1.327476	 4.074423	-2.883726	-18.162320	-4.437608	 89.782030	 78.203890	-179.999900	 1.781927	-4.675983	-7.694288	 8.600079	-2.353824	 35.490190	 18.829650	 60.949070	 48.901380	 5.716295	 19.173350	-3.684826	 5.027458	 0.246833	-9.377971	-2.350882	 35.473990	 5.254307
-0.726372	-0.006058	 1.271800	-176.769300	-6.590400	 0.816479	-15.213730	 4.170914	-175.828500	-6.487020	-12.327430	-1.707924	 20.254320	 69.739620	-30.107760	-2.385833	 28.452760	 0.000004	 17.359450	 5.293486	 173.308100	 3.677585	-9.644089	 0.654006	-18.095110	 67.235560	 24.505010	 2.384659	 28.388700	-0.000001	-7.847471	 7.243546	-1.800271	-3.302835	 10.959760	 1.475776	 6.830886	-8.853947	 3.058420	-91.776190	 78.527400	-180.000000	-32.612190	 2.932051	 6.804249	-15.471200	-2.655630	-42.258470	-2.271003	-17.114640	-2.359918	-4.130354	 21.526190	 0.991307	-5.167926	 0.731697	 3.519349	-1.378229	 35.397820	-2.634230	-9.428994	 1.571111	 4.610863	-3.379475	-18.732240	-5.222511	 89.782020	 78.203850	-180.000000	 3.031138	-2.280320	-10.718540	 9.454007	-2.390814	 44.361930	 30.463060	 64.347310	 38.393870	 5.716295	 19.173350	-3.684826	 5.027458	 0.246833	-9.377971	-2.350882	 35.473990	 5.254307
-0.726407	-0.006090	 1.271397	-176.659000	-6.542807	 0.875168	-15.364560	 3.466036	-175.921100	-6.397632	-14.136770	-1.931421	 20.565750	 71.010700	-30.545390	-2.385833	 28.452760	 0.000004	 17.476690	 5.025034	 173.154600	 3.562871	-10.672970	 0.701669	-18.385500	 68.168470	 24.860640	 2.384659	 28.388700	-0.000001	-8.342635	 7.179740	-1.929855	-3.625486	 10.507400	 1.419099	 6.901076	-8.504668	 3.109585	-91.776180	 78.527420	-180.000000	-31.424220	 7.018199	 13.103340	-15.769120	-3.585678	-53.797990	-2.174668	-16.940690	-2.407629	-4.130354	 21.526190	 0.991307	-5.167926	 0.731697	 3.519349	-1.378229	 35.397820	-2.634230	-9.361090	 1.505136	 4.787522	-3.303342	-18.433850	-5.595790	 89.782090	 78.203870	-180.000000	 3.078529	 1.114964	-14.088350	 9.929821	-2.788557	 54.787690	 34.887450	 59.084620	 33.512910	 5.716295	 19.173350	-3.684826	 5.027458	 0.246833	-9.377971	-2.350882	 35.473990	 5.254307
-0.726467	-0.006123	 1.270901	-176.570900	-6.475408	 0.887029	-15.390760	 2.797602	-176.009300	-6.394886	-15.943760	-2.171279	 21.048650	 72.330060	-31.076090	-2.385833	 28.452760	 0.000004	 17.516050	 4.700203	 173.048100	 3.516195	-11.979110	 0.776609	-19.273730	 69.227360	 25.793410	 2.384659	 28.388700	-0.000001	-8.891125	 7.067347	-1.974611	-4.000096	 9.973072	 1.222612	 6.953381	-8.069124	 3.231928	-91.776110	 78.527360	 179.999900	-30.378060	 12.009380	 19.302910	-16.333230	-4.382231	-64.828550	-2.145100	-16.833820	-2.441390	-4.130354	 21.526190	 0.991307	-5.167926	 0.731697	 3.519349	-1.378229	 35.397820	-2.634230	-9.302151	 1.437492	 4.880869	-3.243261	-18.192420	-5.813116	 89.782140	 78.203890	 180.000000	 2.841820	 5.363554	-16.896480	 10.454810	-3.098551	 65.038250	 36.744460	 53.791500	 30.354080	 5.716295	 19.173350	-3.684826	 5.027458	 0.246833	-9.377971	-2.350882	 35.473990	 5.254307
-0.726575	-0.006160	 1.270203	-176.493000	-6.366464	 0.820078	-15.227940	 2.073998	-176.097700	-6.524269	-18.017240	-2.485250	 21.851440	 73.928410	-31.811910	-2.385833	 28.452760	 0.000004	 17.453580	 4.296470	 173.007900	 3.565390	-13.785320	 0.903339	-21.300860	 70.561690	 27.840330	 2.384659	 28.388700	-0.000001	-9.611703	 6.867451	-1.882725	-4.509146	 9.223183	 0.772777	 6.987824	-7.418697	 3.489531	-91.776300	 78.527420	-179.999900	-29.164940	 19.370030	 26.295510	-17.205290	-5.052117	-76.791700	-2.205971	-16.818640	-2.465823	-4.130354	 21.526190	 0.991307	-5.167926	 0.731697	 3.519349	-1.378229	 35.397820	-2.634230	-9.242472	 1.348776	 4.864014	-3.195466	-17.977200	-5.833428	 89.782130	 78.203850	 180.000000	 2.020005	 11.775150	-19.130990	 11.090140	-3.345909	 76.453200	 36.270980	 47.954230	 28.061430	 5.716295	 19.173350	-3.684826	 5.027458	 0.246833	-9.377971	-2.350882	 35.473990	 5.254307
-0.726678	-0.006191	 1.269431	-176.458100	-6.215819	 0.737528	-15.014840	 1.393976	-176.207200	-6.674278	-20.028760	-2.803823	 22.541390	 75.495710	-32.406590	-2.385833	 28.452760	 0.000004	 17.458950	 3.968068	 172.970600	 3.581542	-15.479240	 1.016093	-23.750450	 71.875400	 30.345290	 2.384659	 28.388700	-0.000001	-10.380250	 6.609698	-1.734922	-5.080931	 8.381455	 0.155690	 7.041446	-6.652564	 3.829680	-91.776250	 78.527380	-179.999900	-27.421030	 28.109410	 32.008300	-18.036210	-5.425040	-86.275180	-2.304224	-16.818370	-2.482890	-4.130354	 21.526190	 0.991307	-5.167926	 0.731697	 3.519349	-1.378229	 35.397820	-2.634230	-9.139746	 1.197874	 4.792549	-3.118360	-17.701230	-5.694988	 89.782100	 78.203900	 180.000000	 0.232836	 19.496230	-19.608680	 11.642540	-3.520258	 85.886380	 32.389730	 42.219220	 27.227340	 5.716295	 19.173350	-3.684826	 5.027458	 0.246833	-9.377971	-2.350882	 35.473990	 5.254307
-0.726799	-0.006222	 1.268479	-176.481900	-5.978814	 0.599441	-14.667760	 0.673673	-176.343800	-6.879922	-22.201280	-3.171939	 22.899170	 77.202400	-32.598560	-2.385833	 28.452760	 0.000004	 17.597150	 3.643250	 172.952400	 3.539224	-17.330770	 1.121415	-27.317120	 73.349950	 34.047580	 2.384659	 28.388700	-0.000001	-11.316160	 6.231086	-1.444073	-5.814482	 7.291921	-0.824102	 7.137468	-5.580780	 4.355016	-91.776050	 78.527360	 179.999900	-24.255960	 39.972270	 35.794510	-18.699630	-5.567044	-93.207520	-2.487869	-16.852220	-2.496820	-4.130354	 21.526190	 0.991307	-5.167926	 0.731697	 3.519349	-1.378229	 35.397820	-2.634230	-8.935801	 0.898476	 4.608823	-2.972193	-17.245020	-5.246239	 89.782090	 78.203830	-180.000000	-3.812668	 29.996690	-17.164700	 12.130300	-3.741858	 93.599770	 23.884790	 36.170480	 27.773850	 5.716295	 19.173350	-3.684826	 5.027458	 0.246833	-9.377971	-2.350882	 35.473990	 5.254307
-0.726881	-0.006258	 1.267399	-176.524300	-5.710188	 0.593883	-14.382100	-0.061420	-176.643900	-7.088556	-24.640060	-3.587562	 24.311030	 79.311880	-33.883390	-2.385833	 28.452760	 0.000004	 17.708850	 3.569601	 172.789300	 3.476472	-18.804850	 1.193159	-31.055460	 74.613210	 37.901900	 2.384659	 28.388700	-0.000001	-12.382320	 5.904205	-1.358629	-6.696706	 5.968755	-1.935320	 7.216368	-4.369779	 4.977363	-91.776170	 78.527400	-180.000000	-18.085510	 54.098710	 33.759230	-18.819730	-5.724071	-94.327440	-2.585848	-16.818300	-2.516511	-4.130354	 21.526190	 0.991307	-5.167926	 0.731697	 3.519349	-1.378229	 35.397820	-2.634230	-8.750086	 0.681155	 4.525308	-2.829873	-16.764900	-5.092983	 89.782020	 78.203870	-179.999900	-12.274290	 42.395260	-9.118251	 12.399290	-4.144489	 96.953720	 10.975210	 30.201700	 29.958040	 5.716295	 19.173350	-3.684826	 5.027458	 0.246833	-9.377971	-2.350882	 35.473990	 5.254307
-0.726908	-0.006316	 1.266327	-176.592800	-5.445474	 0.841679	-14.230060	-0.735896	-177.186800	-7.260879	-27.193680	-4.011636	 28.627660	 81.779990	-38.172710	-2.385833	 28.452760	 0.000004	 17.788910	 3.793671	 172.383900	 3.378897	-19.607350	 1.209248	-33.684760	 75.458290	 40.607140	 2.384659	 28.388700	-0.000001	-13.469610	 5.775874	-1.675482	-7.644978	 4.462261	-3.021598	 7.271432	-3.128767	 5.632584	-91.776150	 78.527420	 180.000000	-6.145555	 66.759870	 20.759040	-18.108460	-5.933197	-87.313720	-2.506622	-16.668320	-2.545522	-4.130354	 21.526190	 0.991307	-5.167926	 0.731697	 3.519349	-1.378229	 35.397820	-2.634230	-8.610892	 0.636912	 4.633775	-2.697409	-16.280690	-5.507103	 89.782110	 78.203870	 180.000000	-27.582620	 52.800060	 7.331238	 12.234700	-4.945268	 93.956410	-3.747668	 23.808560	 34.327510	 5.716295	 19.173350	-3.684826	 5.027458	 0.246833	-9.377971	-2.350882	 35.473990	 5.254307
